<?xml version="1.0" encoding="UTF-8" standalone="no"?>
<!-- Created with Inkscape (http://www.inkscape.org/) -->

<svg
   width="1200"
   height="1200"
   viewBox="0 0 1200 1200"
   version="1.1"
   id="svg5"
   inkscape:version="1.3.2 (091e20ef0f, 2023-11-25)"
   sodipodi:docname="icon.svg"
   xml:space="preserve"
   xmlns:inkscape="http://www.inkscape.org/namespaces/inkscape"
   xmlns:sodipodi="http://sodipodi.sourceforge.net/DTD/sodipodi-0.dtd"
   xmlns="http://www.w3.org/2000/svg"
   xmlns:svg="http://www.w3.org/2000/svg"
   xmlns:rdf="http://www.w3.org/1999/02/22-rdf-syntax-ns#"
   xmlns:cc="http://creativecommons.org/ns#"
   xmlns:dc="http://purl.org/dc/elements/1.1/"><title
     id="title1">Holloway's Portinvartija</title><sodipodi:namedview
     id="namedview7"
     pagecolor="#ffffff"
     bordercolor="#666666"
     borderopacity="1.0"
     inkscape:pageshadow="2"
     inkscape:pageopacity="0.0"
     inkscape:pagecheckerboard="true"
     inkscape:document-units="px"
     showgrid="false"
     units="px"
     width="1200px"
     inkscape:zoom="0.26425487"
     inkscape:cx="302.73803"
     inkscape:cy="64.331832"
     inkscape:window-width="1920"
     inkscape:window-height="971"
     inkscape:window-x="0"
     inkscape:window-y="40"
     inkscape:window-maximized="1"
     inkscape:current-layer="svg5"
     inkscape:showpageshadow="0"
     inkscape:deskcolor="#505050" /><defs
     id="defs2"><linearGradient
       id="linearGradient2"
       x1="865.13"
       x2="585.13"
       y1="-109.02"
       y2="1200"
       gradientUnits="userSpaceOnUse"
       gradientTransform="matrix(0.53422636,0,0,0.53422636,326.86184,28.666125)"><stop
         style="stop-color:#69ceff"
         offset="0"
         id="stop1" /><stop
         style="stop-color:#0100b7"
         offset="1"
         id="stop2" /></linearGradient></defs><path
     id="foreground"
     style="fill:url(#linearGradient2);stroke-width:3.19371;stroke-linecap:square;stroke-linejoin:round"
     d="m 148.2857,1.5e-5 3.42857,20.57143 c 38.8571,0 69.14288,4.00001 90.85715,12 22.85712,6.85713 39.42858,22.28574 49.71428,46.28571 11.42856,23.999975 18.85715,60.571485 22.28572,109.714295 3.42857,49.14281 5.14285,115.42866 5.14285,198.85715 v 425.14287 c 0,83.42849 -1.71428,149.71434 -5.14285,198.85713 -3.42857,49.1428 -10.85716,85.7144 -22.28572,109.7143 -10.2857,24 -26.85716,40 -49.71428,48 -21.71427,6.8571 -52.00005,10.2857 -90.85715,10.2857 L 148.2857,1200 h 462.85716 l -3.42857,-20.5714 c -38.85711,0 -69.71431,-3.4286 -92.57143,-10.2857 -21.71427,-8 -38.28573,-24 -49.71429,-48 -10.2857,-23.9999 -17.14286,-60.5715 -20.57143,-109.7143 -3.42857,-49.1428 -5.14285,-115.42865 -5.14285,-198.85714 V 646.28575 c 27.42853,12.57141 60.00003,24 97.71428,34.28571 38.8571,9.14284 88.00006,13.71429 147.42858,13.71429 66.28564,0 126.8572,-14.28574 181.71429,-42.85714 55.99994,-29.71427 100.57146,-70.8572 133.71426,-123.42858 34.2857,-52.57138 51.4286,-113.14294 51.4286,-181.7143 0,-69.71421 -12.5715,-126.85718 -37.7143,-171.42857 C 988.85718,129.14292 954.57139,93.714285 911.14287,68.571445 867.71434,43.428615 818.57138,25.714295 763.71429,15.428585 710.00006,5.142885 654.57138,1.5e-5 597.42858,1.5e-5 Z m 291.42859,39.42857 h 111.42857 c 36.38259,0 73.71227,2.84094 111.88225,8.20313 -17.60249,5.4456 -30.45703,22.1139 -30.45703,41.71373 0,20.643025 14.19482,38.187945 33.25279,42.617745 l -7.9654,107.68862 -90.88225,-13.81306 c 0.59021,-16.36494 -12.18646,-34.01116 -32.64677,-34.01116 -6.09766,0 -11.74674,1.80922 -16.64397,4.75948 l -40.38281,-47.94475 c 5.49825,-5.91068 8.93303,-13.78093 8.93303,-22.43806 0,-18.0766 -14.70982,-32.971535 -32.75224,-32.971535 -4.93152,0 -9.56468,1.19453 -13.76617,3.18079 z m 260.3471,14.57645 c 34.79969,7.79478 66.90391,20.59584 96.22433,38.56641 36.57139,20.571415 65.71431,51.428615 87.42858,92.571435 0.28683,0.50196 0.52368,1.06403 0.80691,1.57031 -16.17885,1.995 -28.8231,15.8387 -28.8231,32.56808 0,13.00413 7.67172,24.26469 18.66127,29.61496 l -11.48939,31.08482 c -20.55382,-5.70875 -42.40303,-0.56097 -58.44476,14.26171 l -7.51005,-5.94642 c 6.01433,-7.49573 9.77344,-16.89 9.77345,-27.20592 9e-5,-23.94133 -19.4298,-43.60045 -43.28405,-43.60045 -19.79468,0 -36.36242,13.61532 -41.4894,31.90347 l -54.9241,-8.34878 7.98548,-107.95647 c 0.0724,3.7e-4 0.13975,0.0234 0.21262,0.0234 23.60102,0 42.61272,-19.84533 42.61272,-43.757825 0,-14.46267 -7.02248,-27.35369 -17.74051,-35.34877 z m -24.88393,9.9961 c 13.31451,0 24.20759,11.04638 24.20759,25.34598 0,14.299635 -10.89308,25.349335 -24.20759,25.349335 -13.31397,0 -24.20257,-11.0497 -24.20257,-25.349335 0,-14.30014 10.88752,-25.34598 24.20257,-25.34598 z M 453.47879,111.63618 c 8.00965,0 14.34543,6.33338 14.34543,14.56474 0,8.23135 -6.33524,14.56305 -14.34543,14.56305 -6.65243,0 -12.09206,-4.39609 -13.7645,-10.59207 v -7.94029 c 1.67244,-6.19649 7.11207,-10.59543 13.7645,-10.59543 z m 16.64732,42.77679 40.38282,47.94308 c -5.49826,5.91067 -8.93471,13.78427 -8.93471,22.4414 0,9.40452 4.03619,17.88664 10.3962,23.91965 l -37.24386,59.476 c -6.89098,-3.10064 -14.49847,-4.8616 -22.51507,-4.8616 -4.30358,0 -8.47581,0.54486 -12.4972,1.48828 V 155.99332 c 4.20149,1.98627 8.83465,3.18081 13.76617,3.18081 6.09766,0 11.74841,-1.81064 16.64565,-4.76116 z m 418.31921,50.29688 c 1.89966,0 3.69487,0.37813 5.34375,1.03124 2.74707,6.36928 5.23768,13.04589 7.51507,19.9788 -2.31184,4.85104 -7.13431,8.11774 -12.85882,8.11774 -8.00964,0 -14.34375,-6.33338 -14.34375,-14.56473 0,-8.23135 6.33357,-14.56305 14.34375,-14.56305 z m -354.11719,5.5212 c 8.00965,0 14.34709,6.33225 14.34709,14.56306 0,8.23082 -6.33798,14.56472 -14.34709,14.56472 -8.0091,0 -14.34376,-6.33336 -14.34376,-14.56472 0,-8.23135 6.33412,-14.56306 14.34376,-14.56306 z m 30.99943,24.67466 91.8499,13.95704 -8.94476,120.93248 c -12.58476,0.45569 -24.13707,5.01352 -33.38504,12.41853 l -8.47434,-8.65849 c 4.52672,-5.66224 7.35436,-12.74451 7.35436,-20.50948 0,-18.07714 -14.71036,-32.97155 -32.75224,-32.97155 -18.0424,0 -32.75222,14.89441 -32.75222,32.97155 0,18.0766 14.70982,32.97321 32.75222,32.97321 6.99089,0 13.44453,-2.28053 18.77345,-6.07198 l 8.40903,8.58984 c -9.30566,10.26141 -15.04017,23.85607 -15.04017,38.76897 0,30.21688 23.3537,55.15302 52.86328,57.39677 l 2.69866,81.41685 c -21.5325,2.49595 -38.39063,20.83642 -38.39063,43.09654 0,19.8657 13.45264,36.60155 31.63561,41.78572 C 614.06526,650.0249 582.26544,646.28963 546,639.42861 504.85718,631.42862 469.42854,619.42859 439.71429,603.4286 V 413.84769 c 4.02314,0.94609 8.19433,1.50167 12.49888,1.50167 8.89754,0 17.28192,-2.17954 24.74665,-5.95145 l 46.85993,70.47489 c -6.11101,6.0063 -9.9375,14.34774 -9.9375,23.53962 0,18.0766 14.70701,32.97321 32.74888,32.97321 18.04241,0 32.75224,-14.89608 32.75224,-32.97321 0,-18.07659 -14.70983,-32.97154 -32.75224,-32.97154 -5.56983,0 -10.73963,1.55169 -15.33984,4.04632 l -46.48158,-69.90905 c 13.89414,-10.20958 22.9788,-26.68994 22.9788,-45.23772 0,-19.43941 -9.95323,-36.63725 -24.99275,-46.69085 l 36.71317,-58.63226 c 4.47142,2.31949 9.46083,3.7567 14.81752,3.7567 14.5101,0 26.7193,-9.69375 31.00111,-22.86831 z m 198.072,0.98103 c 13.81722,0 24.87555,11.10563 24.87555,25.19531 0,14.08967 -11.05781,25.19364 -24.87555,25.19364 -13.81723,0 -24.87556,-11.10397 -24.87556,-25.19364 0,-14.0902 11.05833,-25.19531 24.87556,-25.19531 z m 143.71708,10.18862 c 7.16685,29.15674 10.88337,62.45341 10.88337,100.21038 0,34.70351 -2.85686,66.14185 -8.43248,94.47322 -12.63096,4.83618 -22.44931,15.46841 -26.28013,28.65067 L 706.77958,435.68808 c 0.56671,-3.87163 2.02148,-14.22199 -2.61998,-27.45367 l 88.84654,-35.64342 c 10.89554,18.30204 30.72091,30.65458 53.39398,30.65458 34.34699,0 62.29018,-28.25664 62.29018,-62.7874 0,-25.53598 -15.30149,-47.60163 -37.15347,-57.3817 l 11.59488,-31.36774 c 8.64504,1.44622 17.15154,-0.87144 23.98493,-5.63337 z m -240.81195,4.16685 54.07868,8.21819 c -1.42931,24.73893 17.54604,46.22043 43.01954,46.22043 10.25233,0 19.56034,-3.78011 26.9866,-9.82199 l 7.6875,6.08873 c -14.97862,18.57395 -17.61772,43.00805 -9.24107,63.39677 l -88.35435,35.44419 c -8.62349,-15.8868 -24.4703,-27.24234 -43.04799,-29.59988 z m 180.09711,45.83371 c 24.30833,0 43.88002,19.70027 43.88002,44.37723 0,24.67695 -19.57222,44.37724 -43.88002,44.37724 -24.30782,0 -43.88171,-19.70029 -43.88171,-44.37724 0,-24.67696 19.57389,-44.37723 43.88171,-44.37723 z m -394.18361,25.6557 c 20.60189,0 37.16853,16.66359 37.16853,37.60044 0,20.93631 -16.56664,37.6038 -37.16853,37.6038 -4.41504,0 -8.58283,-0.90143 -12.5039,-2.31028 v -70.58537 c 3.92103,-1.40867 8.08891,-2.30859 12.5039,-2.30859 z m 128.75893,16.74441 c 8.00964,0 14.3471,6.3311 14.3471,14.56138 0,8.23082 -6.33798,14.56641 -14.3471,14.56641 -8.00912,0 -14.34208,-6.33506 -14.34207,-14.56641 0,-8.23135 6.33189,-14.56138 14.34207,-14.56138 z m 69.31641,49.61384 c 21.48176,0 38.7606,17.38507 38.7606,39.20926 0,21.8242 -17.27937,39.21095 -38.7606,39.21095 -21.48122,0 -38.76395,-17.38675 -38.76395,-39.21094 0,-21.8242 17.28273,-39.20927 38.76395,-39.20927 z m 54.48382,56.5865 176.89955,33.79686 c -0.71619,10.19547 2.23903,19.80654 7.59543,27.70815 -2.30728,5.1208 -4.68643,10.15912 -7.27232,14.9615 -23.99998,44.57138 -56.00004,77.71432 -96,99.42858 -36.42352,19.28302 -76.91745,29.40838 -121.37445,30.61606 18.48739,-4.98018 32.22824,-21.88811 32.22824,-41.97154 0,-22.45885 -17.16064,-40.92854 -38.96987,-43.1568 l -2.69364,-81.38338 c 23.34033,-2.0182 42.72226,-18.24736 49.58706,-39.99943 z m 197.52121,25.81807 c -0.68151,2.32777 -1.40997,4.6022 -2.13616,6.87891 0.38933,-2.44313 1.11807,-4.73737 2.13616,-6.87891 z m -355.68249,18.34655 c 8.00965,0 14.34542,6.33058 14.34542,14.56139 0,8.23134 -6.33523,14.56641 -14.34542,14.56641 -8.01018,0 -14.34375,-6.33507 -14.34375,-14.56641 0,-8.23135 6.33357,-14.56139 14.34375,-14.56139 z m 106.93527,95.17634 c 13.81721,0 24.87724,11.10343 24.87724,25.19363 0,14.09022 -11.06003,25.19533 -24.87724,25.19533 -13.81723,0 -24.87388,-11.10511 -24.87388,-25.19533 0,-14.0902 11.05665,-25.19363 24.87388,-25.19363 z"
     inkscape:label="foreground" /><metadata
     id="metadata1"><rdf:RDF><cc:Work
         rdf:about=""><dc:title>Holloway's Portinvartija</dc:title><dc:date>May 21, 2024</dc:date><dc:creator><cc:Agent><dc:title>(Holloway) Chew, Kean Ho</dc:title></cc:Agent></dc:creator><dc:rights><cc:Agent><dc:title>Apache 2.0 Licensed Rights</dc:title></cc:Agent></dc:rights><dc:publisher><cc:Agent><dc:title>(Holloway) Chew, Kean Ho</dc:title></cc:Agent></dc:publisher><dc:identifier>holloway-portinvartija</dc:identifier><dc:language>English</dc:language><dc:relation>Software</dc:relation><dc:source>https://github.com/ChewKeanHo/Portinvartija</dc:source><dc:coverage>Software</dc:coverage><dc:description>Solve the Linux OS' SecureBoot kernel signing drama once &amp; for all</dc:description><cc:license
           rdf:resource="https://github.com/ChewKeanHo/Portinvartija/blob/main/LICENSE.txt" /></cc:Work></rdf:RDF></metadata></svg>
