<?xml version="1.0" encoding="UTF-8" standalone="no"?>
<svg
   width="1200"
   height="400"
   viewBox="0 0 1200 400"
   version="1.1"
   preserveAspectRatio="xMidYMid"
   id="svg28"
   sodipodi:docname="inkscape-template_1200x400.svg"
   inkscape:version="1.3.2 (091e20ef0f, 2023-11-25)"
   xml:space="preserve"
   xmlns:inkscape="http://www.inkscape.org/namespaces/inkscape"
   xmlns:sodipodi="http://sodipodi.sourceforge.net/DTD/sodipodi-0.dtd"
   xmlns="http://www.w3.org/2000/svg"
   xmlns:svg="http://www.w3.org/2000/svg"
   xmlns:rdf="http://www.w3.org/1999/02/22-rdf-syntax-ns#"
   xmlns:cc="http://creativecommons.org/ns#"
   xmlns:dc="http://purl.org/dc/elements/1.1/"><title
     id="title1">Holloway's Portinvartija</title><defs
     id="defs32"><linearGradient
       id="linearGradient2"
       x1="865.13"
       x2="585.13"
       y1="-109.02"
       y2="1200"
       gradientUnits="userSpaceOnUse"
       gradientTransform="matrix(0.17807559,0,0,0.17807559,86.907777,9.5553781)"><stop
         style="stop-color:#69ceff"
         offset="0"
         id="stop1" /><stop
         style="stop-color:#0100b7"
         offset="1"
         id="stop2" /></linearGradient></defs><sodipodi:namedview
     id="namedview30"
     pagecolor="#ffffff"
     bordercolor="#666666"
     borderopacity="1.0"
     inkscape:pageshadow="2"
     inkscape:pageopacity="0.0"
     inkscape:pagecheckerboard="true"
     showgrid="false"
     inkscape:zoom="0.4308932"
     inkscape:cx="645.17147"
     inkscape:cy="-106.75499"
     inkscape:window-width="1920"
     inkscape:window-height="971"
     inkscape:window-x="0"
     inkscape:window-y="40"
     inkscape:window-maximized="1"
     inkscape:current-layer="svg28"
     inkscape:showpageshadow="0"
     inkscape:deskcolor="#505050" /><path
     id="foreground"
     style="fill:url(#linearGradient2);stroke-width:1.06457;stroke-linecap:square;stroke-linejoin:round"
     inkscape:label="foreground"
     d="m 27.38235,0 1.143112,6.8567332 c 12.952363,0 23.046623,1.334232 30.284712,4.0008908 7.619039,2.285708 13.142681,7.428142 16.571246,15.428135 3.80952,7.999984 6.287369,20.190897 7.430226,36.571826 1.142856,16.380937 1.712731,38.475495 1.712731,66.284985 v 141.71486 c 0,27.80948 -0.569875,49.90405 -1.712731,66.28498 -1.142857,16.38093 -3.620706,28.57187 -7.430226,36.57183 -3.428565,8 -8.952207,13.33303 -16.571246,15.99969 -7.238089,2.2857 -17.332349,3.42934 -30.284712,3.42934 L 27.38235,400 h 154.28522 l -1.14311,-6.85673 c -12.95237,0 -23.23723,-1.14364 -30.85627,-3.42934 -7.2381,-2.66666 -12.76173,-7.99969 -16.57125,-15.99969 -3.42857,-7.99996 -5.71387,-20.1909 -6.85673,-36.57183 -1.14286,-16.38093 -1.71467,-38.4755 -1.71467,-66.28498 v -55.4293 c 9.14284,4.19047 19.99952,8.00062 32.57094,11.42918 12.95236,3.04762 29.3346,4.57051 49.14411,4.57052 22.09521,0 42.28567,-4.76124 60.57136,-14.28503 18.66664,-9.90476 33.52214,-23.61855 44.56974,-41.14233 11.42856,-17.5238 17.1428,-37.71424 17.1428,-60.57137 0,-23.23806 -4.18941,-42.286835 -12.57036,-57.143962 C 307.5732,43.047059 296.1447,31.237367 281.66853,22.856424 267.19236,14.475485 250.81012,8.5706362 232.52442,5.1420656 214.61968,1.7135013 196.14466,0 177.09706,0 Z m 97.14319,13.141911 h 37.14338 c 12.12752,0 24.56925,0.948322 37.29257,2.735717 -5.86749,1.815202 -10.15238,7.370066 -10.15238,13.90334 0,6.881007 4.73165,12.73092 11.08431,14.207523 l -2.65434,35.895648 -30.29441,-4.605384 c 0.19673,-5.454983 -4.06271,-11.336182 -10.88281,-11.336182 -2.03256,0 -3.91458,0.60338 -5.547,1.586794 L 137.05327,49.547115 c 1.83275,-1.970228 2.9779,-4.592957 2.9779,-7.478664 0,-6.025535 -4.90355,-10.99131 -10.91769,-10.99131 -1.64383,0 -3.18745,0.397711 -4.58794,1.059799 z m 86.78156,4.859193 c 11.59989,2.59826 22.30146,6.864976 32.07494,12.855164 12.19047,6.857136 21.90545,17.143935 29.14354,30.858206 0.0956,0.16732 0.1749,0.354357 0.26931,0.523118 -5.39295,0.664998 -9.60796,5.279225 -9.60796,10.855688 0,4.334709 2.55612,8.088026 6.21931,9.871448 l -3.82846,10.36163 c -6.85128,-1.902914 -14.1341,-0.186323 -19.48133,4.75457 l -2.50323,-1.982039 c 2.00479,-2.498577 3.2569,-5.630693 3.2569,-9.069333 4e-5,-7.980442 -6.47698,-14.53302 -14.42839,-14.53302 -6.59824,0 -12.12072,4.538767 -13.82971,10.634815 l -18.30723,-2.782218 2.66209,-35.986709 c 0.0241,1.21e-4 0.0455,0.0078 0.0697,0.0078 7.86701,0 14.20365,-6.614501 14.20365,-14.585332 0,-4.820888 -2.34051,-9.11871 -5.91318,-11.783739 z m -8.29434,3.332461 c 4.43816,0 8.06959,3.682808 8.06959,8.449341 0,4.766539 -3.63143,8.44934 -8.06959,8.44934 -4.438,0 -8.06766,-3.682801 -8.06766,-8.44934 0,-4.766717 3.6293,-8.449341 8.06766,-8.449341 z m -73.89928,15.87763 c 2.66989,0 4.7817,2.111535 4.7817,4.855318 0,2.743783 -2.11164,4.855319 -4.7817,4.855319 -2.21747,0 -4.03046,-1.466696 -4.58794,-3.532022 v -2.646593 c 0.55748,-2.065498 2.37047,-3.532022 4.58794,-3.532022 z m 5.54894,14.259835 13.4616,15.980315 c -1.83276,1.970222 -2.97791,4.594893 -2.97791,7.4806 0,3.134844 1.3442,5.963656 3.46421,7.974659 L 136.1969,102.73088 c -2.29698,-1.03356 -4.83358,-1.61974 -7.50579,-1.61974 -1.43452,0 -2.82511,0.18151 -4.16557,0.49599 V 51.998024 c 1.40049,0.662095 2.94411,1.0598 4.58794,1.0598 2.03256,0 3.91653,-0.60329 5.54894,-1.586794 z m 139.44026,16.764993 c 0.63323,0 1.23092,0.12717 1.78054,0.344872 0.91571,2.123096 1.74602,4.348145 2.50516,6.65911 -0.77062,1.617015 -2.37753,2.706656 -4.2857,2.706656 -2.66988,0 -4.78169,-2.111536 -4.78169,-4.855318 0,-2.743778 2.11163,-4.85532 4.78169,-4.85532 z M 156.0638,70.076627 c 2.66988,0 4.7817,2.111713 4.7817,4.855318 0,2.743607 -2.11199,4.85532 -4.7817,4.85532 -2.66969,0 -4.7817,-2.111535 -4.7817,-4.85532 0,-2.743783 2.11183,-4.855318 4.7817,-4.855318 z m 10.33257,8.224593 30.61602,4.653821 -2.98178,40.309229 c -4.19492,0.15189 -8.04427,1.67205 -11.12694,4.14038 l -2.82483,-2.88684 c 1.50891,-1.88741 2.4509,-4.2471 2.4509,-6.83542 0,-6.02571 -4.90372,-10.99132 -10.91768,-10.99132 -6.01413,0 -10.91769,4.96561 -10.91769,10.99132 0,6.02554 4.90356,10.99131 10.91769,10.99131 2.33029,0 4.48174,-0.76086 6.25804,-2.02466 l 2.80354,2.86358 c -3.10188,3.42049 -5.01419,7.95201 -5.01419,12.92299 0,10.07228 7.78483,18.38467 17.62136,19.13259 l 0.89898,27.13824 c -7.17749,0.83199 -12.79703,6.94636 -12.79703,14.3664 0,6.62189 4.4847,12.20047 10.54569,13.92853 -9.28647,-0.3256 -19.88571,-1.57052 -31.97419,-3.85753 -13.71428,-2.66665 -25.52398,-6.6674 -35.42872,-12.00073 V 137.9484 c 1.34105,0.31538 2.73072,0.50181 4.16557,0.50181 2.96586,0 5.76154,-0.72668 8.24979,-1.98398 l 15.61994,23.49192 c -2.037,2.00209 -3.31309,4.78283 -3.31309,7.84679 0,6.02552 4.9018,10.9913 10.91576,10.9913 6.01413,0 10.91767,-4.9656 10.91768,-10.9913 0,-6.02553 -4.90355,-10.99131 -10.91768,-10.99131 -1.85661,0 -3.57961,0.51692 -5.11301,1.34848 l -15.49401,-23.30204 c 4.63138,-3.4032 7.66078,-8.89681 7.66078,-15.07939 0,-6.47981 -3.31797,-12.21256 -8.33114,-15.56376 l 12.2371,-19.545274 c 1.49047,0.773168 3.15306,1.253548 4.93863,1.253548 4.8367,0 8.90725,-3.232459 10.33451,-7.623974 z m 66.02342,0.327433 c 4.60574,0 8.2924,3.702407 8.2924,8.398966 0,4.696551 -3.6865,8.397027 -8.2924,8.397027 -4.60574,0 -8.29046,-3.700476 -8.29046,-8.397027 0,-4.696737 3.68472,-8.398966 8.29046,-8.398966 z m 47.90607,3.396398 c 2.38896,9.718906 3.6289,20.818399 3.6289,33.404049 0,11.56784 -0.95274,22.04605 -2.81128,31.48983 -4.21033,1.61206 -7.48434,5.15767 -8.76127,9.55177 l -58.83539,-11.24126 c 0.18891,-1.29054 0.67336,-4.74015 -0.8738,-9.15071 l 29.61628,-11.88254 c 3.63184,6.10068 10.23997,10.21826 17.79767,10.21826 11.44899,0 20.76394,-9.41839 20.76394,-20.92864 0,-8.51199 -5.10037,-15.866753 -12.38435,-19.126776 l 3.86527,-10.456567 c 2.88168,0.482077 5.71624,-0.290109 7.99403,-1.877416 z m -80.26969,1.389172 18.02628,2.739593 c -0.47643,8.246309 5.84811,15.406824 14.33928,15.406824 3.41745,0 6.52029,-1.26038 8.99571,-3.274339 l 2.56134,2.030469 c -4.99287,6.19132 -5.87087,14.33583 -3.07865,21.13208 l -29.4516,11.81473 c -2.8745,-5.29559 -8.15833,-9.08171 -14.35089,-9.86757 z m 60.0308,15.27701 c 8.10278,0 14.62796,6.566987 14.62796,14.792637 0,8.22565 -6.52536,14.79265 -14.62796,14.79265 -8.10261,0 -14.62602,-6.567 -14.62602,-14.79265 0,-8.22565 6.52341,-14.792637 14.62602,-14.792637 z m -131.39391,8.552027 c 6.8673,0 12.39016,5.5546 12.39016,12.53354 0,6.97877 -5.52286,12.53548 -12.39016,12.53548 -1.47168,0 -2.8605,-0.30149 -4.16752,-0.77111 v -23.52679 c 1.30701,-0.46955 2.69585,-0.77112 4.16752,-0.77112 z m 42.919,5.58187 c 2.66987,0 4.78363,2.10996 4.78363,4.85339 0,2.74359 -2.11393,4.85532 -4.78363,4.85532 -2.66971,0 -4.77976,-2.11155 -4.77976,-4.85532 0,-2.74379 2.10969,-4.85339 4.77976,-4.85339 z m 23.10635,16.53831 c 7.16058,0 12.92104,5.79549 12.92104,13.07022 0,7.27473 -5.76063,13.07023 -12.92104,13.07023 -7.1604,0 -12.92103,-5.7955 -12.92103,-13.07023 0,-7.27473 5.76063,-13.07022 12.92103,-13.07022 z m 18.16192,18.86135 58.96519,11.26643 c -0.23873,3.39848 0.74682,6.60209 2.53228,9.23595 -0.76909,1.70693 -1.56181,3.38628 -2.42377,4.98707 -8,14.85712 -18.66607,25.9044 -31.99939,33.14249 -12.14118,6.42769 -25.63941,9.80408 -40.4584,10.20664 6.16246,-1.66005 10.74137,-7.29606 10.74137,-13.99053 0,-7.48628 -5.71911,-13.64302 -12.98885,-14.38577 l -0.89899,-27.12856 c 7.78012,-0.67274 14.2423,-6.08303 16.53056,-13.33372 z m -52.7207,14.72289 c 2.66988,0 4.78169,2.10978 4.78169,4.85338 0,2.74378 -2.11164,4.85532 -4.78169,4.85532 -2.67007,0 -4.78169,-2.11154 -4.78169,-4.85532 0,-2.74378 2.11162,-4.85338 4.78169,-4.85338 z m 35.64377,31.72426 c 4.60575,0 8.29435,3.70222 8.29435,8.39896 0,4.69673 -3.6886,8.39896 -8.29435,8.39896 -4.60574,0 -8.29046,-3.70223 -8.29046,-8.39896 0,-4.69674 3.68472,-8.39896 8.29046,-8.39896 z m 234.66729,3.72577 c -3.12197,0 -5.83763,1.15473 -8.14516,3.46226 -2.30758,2.30755 -3.46033,5.02124 -3.46033,8.14323 0,3.12198 1.15275,5.83762 3.46033,8.14516 2.30753,2.30753 5.02319,3.46033 8.14516,3.46033 3.12196,0 5.83569,-1.1528 8.14321,-3.46033 2.30754,-2.30754 3.46228,-5.02318 3.46228,-8.14516 0,-3.12199 -1.15474,-5.83568 -3.46228,-8.14323 -2.30752,-2.30753 -5.02125,-3.46226 -8.14321,-3.46226 z m 550.75707,0 c -3.12203,0 -5.83764,1.15473 -8.14516,3.46226 -2.30752,2.30755 -3.46033,5.02124 -3.46033,8.14323 0,3.12198 1.15281,5.83762 3.46033,8.14516 2.30752,2.30753 5.02313,3.46033 8.14516,3.46033 3.1219,0 5.83563,-1.1528 8.14321,-3.46033 2.30754,-2.30754 3.46228,-5.02318 3.46228,-8.14516 0,-3.12199 -1.15474,-5.83568 -3.46228,-8.14323 -2.30758,-2.30753 -5.02131,-3.46226 -8.14321,-3.46226 z m 62.50684,0 c -3.1219,0 -5.8375,1.15473 -8.1451,3.46226 -2.3075,2.30755 -3.4604,5.02124 -3.4604,8.14323 0,3.12198 1.1529,5.83762 3.4604,8.14516 2.3075,2.30753 5.0232,3.46033 8.1451,3.46033 3.122,0 5.8356,-1.1528 8.1432,-3.46033 2.3077,-2.30754 3.4623,-5.02318 3.4623,-8.14516 0,-3.12199 -1.1547,-5.83568 -3.4623,-8.14323 -2.3076,-2.30753 -5.0212,-3.46226 -8.1432,-3.46226 z m -675.56738,21.17468 -4.47945,0.40688 c -0.81443,4.34361 -1.90145,8.41706 -3.25883,12.21774 -1.35738,3.80063 -3.45985,6.85476 -6.31037,9.16232 -2.85047,2.17181 -6.99161,3.25691 -12.42116,3.25691 v 4.47944 h 12.21772 v 78.38841 c 0,5.97247 1.22053,10.04592 3.66377,12.21773 2.44331,2.17181 5.90554,3.25691 10.38488,3.25691 4.61512,0 9.02508,-0.88201 13.23298,-2.6466 4.20784,-1.76459 8.21361,-3.869 12.01429,-6.3123 l -0.40881,-2.23973 c -3.3934,1.35739 -6.44751,2.44443 -9.16232,3.25884 -2.71475,0.67871 -5.42848,1.01717 -8.14322,1.01717 -2.17181,0 -3.93576,-0.81431 -5.29319,-2.44316 -1.35731,-1.62886 -2.03629,-3.93635 -2.03629,-6.92261 v -77.57466 h 25.04383 v -4.47944 h -25.04383 z m 550.75707,0 -4.47945,0.40688 c -0.81441,4.34361 -1.90147,8.41706 -3.25883,12.21774 -1.3574,3.80063 -3.46181,6.85476 -6.31231,9.16232 -2.85049,2.17181 -6.98971,3.25691 -12.41923,3.25691 v 4.47944 h 12.2158 v 78.38841 c 0,5.97247 1.22243,10.04592 3.6657,12.21773 2.44327,2.17181 5.9036,3.25691 10.38295,3.25691 4.61511,0 9.02706,-0.88201 13.2349,-2.6466 4.20791,-1.76459 8.21363,-3.869 12.0143,-6.3123 l -0.40881,-2.23973 c -3.39346,1.35739 -6.44758,2.44443 -9.16233,3.25884 -2.71474,0.67871 -5.42846,1.01717 -8.14321,1.01717 -2.17181,0 -3.9377,-0.81431 -5.29513,-2.44316 -1.35732,-1.62886 -2.03435,-3.93635 -2.03435,-6.92261 v -77.57466 h 25.04383 v -4.47944 h -25.04383 z m -599.41876,21.99038 c -8.28002,0 -15.06711,2.78139 -20.36095,8.34665 -5.15799,5.42952 -8.48485,12.96329 -9.97801,22.60068 v -29.93016 c -5.70099,0 -11.19809,0.20503 -16.4918,0.61225 -5.15807,0.40722 -9.43264,0.81341 -12.82611,1.22061 l -5.09169,0.6103 0.40881,2.23973 c 4.61506,0 8.21078,0.40813 10.78981,1.22255 2.71475,0.67868 4.68377,2.37499 5.90543,5.08975 1.35738,2.71477 2.17166,6.9913 2.44317,12.82804 0.40721,5.70099 0.6103,13.50555 0.6103,23.41441 v 11.80893 c 0,8.55151 -0.20309,15.33864 -0.6103,20.36095 -0.27151,5.0223 -0.95042,8.68765 -2.0363,10.99519 -1.08593,2.30754 -2.78222,3.80077 -5.08975,4.47945 -2.30753,0.67872 -5.42936,1.01717 -9.36576,1.01717 l -0.40688,2.44316 h 49.47543 l -0.40687,-2.44316 c -4.07213,0 -7.26162,-0.33845 -9.5692,-1.01717 -2.30753,-0.67868 -4.00388,-2.17191 -5.08976,-4.47945 -1.08593,-2.30754 -1.83251,-5.97289 -2.23972,-10.99519 -0.27149,-5.02231 -0.40881,-11.80944 -0.40881,-20.36095 0,-8.14428 0.67886,-15.94885 2.03629,-23.41442 1.49309,-7.4656 3.59755,-13.50615 6.3123,-18.12122 2.71475,-4.75082 5.90424,-7.12605 9.56921,-7.12605 3.12195,0 5.49717,0.4739 7.12604,1.42405 1.7646,0.81444 3.32557,1.69838 4.68288,2.64853 1.49316,0.81444 3.25904,1.22061 5.29512,1.22061 1.90032,0 3.73204,-0.67892 5.49663,-2.03628 1.7646,-1.49313 2.6466,-3.59755 2.6466,-6.31231 0,-2.71476 -1.35784,-4.74955 -4.07258,-6.10693 -2.71476,-1.49312 -5.63156,-2.23972 -8.75353,-2.23972 z m 550.75514,0 c -8.28002,0 -15.06523,2.78139 -20.35902,8.34665 -5.15803,5.42952 -8.48488,12.96329 -9.97801,22.60068 v -29.93016 c -5.70098,0 -11.19802,0.20503 -16.4918,0.61225 -5.15807,0.40722 -9.43465,0.81341 -12.82804,1.22061 l -5.08976,0.6103 0.40687,2.23973 c 4.61505,0 8.21272,0.40813 10.79175,1.22255 2.71475,0.67868 4.68377,2.37499 5.90543,5.08975 1.35737,2.71477 2.17169,6.9913 2.44316,12.82804 0.40723,5.70099 0.61031,13.50555 0.61031,23.41441 v 11.80893 c 0,8.55151 -0.20308,15.33864 -0.61031,20.36095 -0.27147,5.0223 -0.95042,8.68765 -2.03629,10.99519 -1.08594,2.30754 -2.78223,3.80077 -5.08975,4.47945 -2.30753,0.67872 -5.42932,1.01717 -9.36577,1.01717 l -0.40881,2.44316 H 857.638 l -0.40687,-2.44316 c -4.07213,0 -7.26164,-0.33845 -9.5692,-1.01717 -2.30755,-0.67868 -4.00579,-2.17191 -5.0917,-4.47945 -1.0859,-2.30754 -1.83252,-5.97289 -2.23972,-10.99519 -0.27149,-5.02231 -0.40687,-11.80944 -0.40687,-20.36095 0,-8.14428 0.67889,-15.94885 2.03629,-23.41442 1.49309,-7.4656 3.59753,-13.50615 6.3123,-18.12122 2.71476,-4.75082 5.90428,-7.12605 9.56921,-7.12605 3.12195,0 5.49718,0.4739 7.12604,1.42405 1.76461,0.81444 3.32552,1.69838 4.68288,2.64853 1.49313,0.81444 3.25714,1.22061 5.29319,1.22061 1.90035,0 3.73397,-0.67892 5.49856,-2.03628 1.76458,-1.49313 2.6466,-3.59755 2.6466,-6.31231 0,-2.71476 -1.35783,-4.74955 -4.07258,-6.10693 -2.71477,-1.49312 -5.63352,-2.23972 -8.75546,-2.23972 z m -676.58462,1.01717 c -9.50168,0 -17.64666,2.30754 -24.43353,6.92261 -6.78693,4.47938 -11.94545,10.51992 -15.47463,18.12123 -3.52919,7.60133 -5.29319,16.01708 -5.29319,25.24727 0,9.09443 1.8336,17.4425 5.49856,25.04383 3.80063,7.6013 9.16229,13.70956 16.08493,18.32467 7.05838,4.47934 15.33686,6.71918 24.83848,6.71918 9.63745,0 17.85009,-2.23984 24.63695,-6.71918 6.78688,-4.61511 11.94546,-10.72337 15.47464,-18.32467 3.66497,-7.60133 5.49663,-15.9494 5.49663,-25.04383 0,-9.23019 -1.89939,-17.64594 -5.70006,-25.24727 -3.66491,-7.60131 -9.02657,-13.64185 -16.08495,-18.12123 -6.92265,-4.61507 -15.27072,-6.92261 -25.04383,-6.92261 z m 244.53099,0 c -5.70106,0 -11.19809,0.20503 -16.49181,0.61225 -5.29383,0.27145 -9.70573,0.60995 -13.23491,1.01717 l -5.08976,0.61031 0.40688,2.23973 c 4.75083,0 8.41616,0.4758 10.99518,1.42598 2.71475,0.81444 4.75149,2.64613 6.10887,5.49662 1.35737,2.85049 2.17166,7.19476 2.44316,13.03147 0.40722,5.83675 0.6103,13.70899 0.6103,23.61786 v 16.28837 c 0,7.05836 -0.13537,12.69273 -0.40687,16.90062 -0.27144,4.20786 -0.95035,7.39739 -2.03629,9.5692 -1.08588,2.03608 -2.84988,3.3939 -5.29319,4.07258 -2.30753,0.67872 -5.56667,1.01717 -9.77457,1.01717 l -0.40687,2.44316 h 49.6808 l -0.40687,-2.44316 c -4.07212,0 -7.26167,-0.33845 -9.5692,-1.01717 -2.30754,-0.67868 -4.00576,-2.0365 -5.09169,-4.07258 -1.08588,-2.03605 -1.7648,-5.09017 -2.0363,-9.16234 -0.27144,-4.20785 -0.40686,-9.84224 -0.40686,-16.90061 z m 64.54319,0 c -5.70099,0 -11.19804,0.20503 -16.49181,0.61225 -5.29378,0.27145 -9.70573,0.60995 -13.23492,1.01717 l -5.08974,0.61031 0.40686,2.23973 c 4.75084,0 8.41616,0.4758 10.99519,1.42598 2.71475,0.81444 4.7515,2.64613 6.10887,5.49662 1.35738,2.85049 2.17172,7.19476 2.44316,13.03147 0.40722,5.83675 0.6103,13.70899 0.6103,23.61786 v 16.28837 c 0,7.05836 -0.13543,12.69273 -0.40687,16.90062 -0.2715,4.20786 -0.95041,7.39739 -2.03629,9.5692 -1.08593,2.03608 -2.84993,3.3939 -5.29318,4.07258 -2.30754,0.67872 -5.56474,1.01717 -9.77265,1.01717 l -0.4088,2.44316 h 49.6808 l -0.40687,-2.44316 c -4.07212,0 -7.26161,-0.33845 -9.56921,-1.01717 -2.30752,-0.67868 -4.00581,-2.0365 -5.09169,-4.07258 -1.08593,-2.03605 -1.76291,-5.09017 -2.03435,-9.16234 -0.27149,-4.20785 -0.4088,-9.84224 -0.4088,-16.90061 0,-3.66493 0.27273,-7.93956 0.81568,-12.8261 0.54293,-5.02231 1.49259,-10.18085 2.85002,-15.47463 1.35738,-5.29379 3.12138,-10.17961 5.29319,-14.65896 2.30754,-4.61508 5.15857,-8.34813 8.55203,-11.19862 3.52918,-2.8505 7.66845,-4.27602 12.41923,-4.27602 7.46565,0 12.55646,2.51062 15.2712,7.53292 2.71475,5.0223 4.07258,11.94486 4.07258,20.76782 v 28.30267 c 0,7.46558 -0.13538,13.43652 -0.40687,17.91586 -0.27144,4.34361 -0.95036,7.60276 -2.03629,9.77457 -0.95015,2.17181 -2.57878,3.59734 -4.88632,4.27602 -2.30753,0.67872 -5.56668,1.01717 -9.77457,1.01717 l -0.40688,2.44316 h 49.47737 l -0.40687,-2.44316 c -5.29378,0 -9.16218,-0.61118 -11.60549,-1.83286 -2.44331,-1.35736 -4.00422,-4.27611 -4.68288,-8.75545 -0.67866,-4.47936 -1.01912,-11.33421 -1.01912,-20.56439 V 275.1567 c 0,-10.45182 -2.57829,-18.45947 -7.73634,-24.02473 -5.15806,-5.70098 -12.96453,-8.55203 -23.41636,-8.55203 -6.65114,0 -12.28361,1.83363 -16.89868,5.49856 -4.47933,3.66491 -8.00923,8.34764 -10.58832,14.04866 -2.44324,5.56525 -4.07187,11.19769 -4.88631,16.89868 z m 239.44316,0 c -5.70105,0 -11.20002,0.74661 -16.49374,2.23973 -5.15806,1.4931 -9.36498,3.59754 -12.62267,6.3123 -3.25774,2.71476 -4.88632,6.03968 -4.88632,9.97608 0,4.61511 2.30755,6.9226 6.92261,6.9226 2.30759,0 4.07153,-0.67889 5.29319,-2.03629 1.35737,-1.4931 2.51212,-3.25711 3.46227,-5.29319 0.95016,-2.17181 2.03525,-4.27622 3.2569,-6.3123 1.35738,-2.03605 3.12138,-3.73236 5.29319,-5.08975 2.1718,-1.49313 5.15827,-2.23972 8.9589,-2.23972 5.56527,0 9.77413,1.29011 12.6246,3.86914 2.98624,2.57903 4.95335,6.17667 5.90349,10.79174 1.08594,4.47936 1.62942,9.63595 1.62942,15.4727 v 7.33142 c -14.38824,0 -25.9258,1.42358 -34.61304,4.27407 -8.68718,2.71477 -14.99857,6.5832 -18.93496,11.6055 -3.93646,4.88656 -5.90543,10.58865 -5.90543,17.10405 0,8.00855 2.51057,14.25219 7.53291,18.73153 5.02233,4.47934 11.53868,6.71918 19.54722,6.71918 6.65114,0 12.08047,-1.42552 16.28837,-4.27602 4.20783,-2.85049 7.53275,-6.44813 9.97607,-10.79175 2.57897,-4.34361 4.61571,-8.75363 6.10886,-13.23297 0,5.56524 0.20309,10.8592 0.61031,15.8815 0.40722,5.0223 0.88304,8.82303 1.42599,11.40205 5.70099,1e-5 10.85957,-0.88391 15.47463,-2.64853 4.75083,-1.76459 8.48381,-3.46089 11.19862,-5.08975 l 4.07063,-2.64659 -1.01717,-2.03629 c -1.35738,0.67867 -2.78292,1.3576 -4.27601,2.03629 -1.49316,0.54295 -3.12173,0.81374 -4.88632,0.81374 -2.44324,0 -4.27497,-1.01739 -5.49662,-3.05347 -1.22167,-2.17178 -2.03788,-5.90482 -2.4451,-11.19862 -0.27149,-5.29379 -0.40687,-12.75986 -0.40687,-22.39724 V 275.1567 c 0,-11.26625 -3.18955,-19.477 -9.56921,-24.63504 -6.3797,-5.29378 -14.38738,-7.94172 -24.02472,-7.94172 z m 246.77072,0 c -5.701,0 -11.19805,0.20503 -16.49181,0.61225 -5.29378,0.27145 -9.70573,0.60995 -13.23491,1.01717 l -5.08976,0.61031 0.40688,2.23973 c 4.75083,0 8.41616,0.4758 10.99518,1.42598 2.71475,0.81444 4.75149,2.64613 6.10886,5.49662 1.35738,2.85049 2.17166,7.19476 2.44316,13.03147 0.40722,5.83675 0.61031,13.70899 0.61031,23.61786 v 16.28837 c 0,7.05836 -0.13537,12.69273 -0.40687,16.90062 -0.27149,4.20786 -0.95042,7.39739 -2.03629,9.5692 -1.08594,2.03608 -2.84994,3.3939 -5.29319,4.07258 -2.30758,0.67872 -5.56673,1.01717 -9.77458,1.01717 l -0.40686,2.44316 h 49.68077 l -0.4069,-2.44316 c -4.0721,0 -7.26357,-0.33845 -9.57108,-1.01717 -2.30759,-0.67868 -4.00388,-2.0365 -5.08975,-4.07258 -1.08594,-2.03605 -1.76485,-5.09017 -2.0363,-9.16234 -0.27149,-4.20785 -0.40686,-9.84224 -0.40686,-16.90061 z m 62.50689,0 c -5.701,0 -11.198,0.20503 -16.4918,0.61225 -5.2939,0.27145 -9.7057,0.60995 -13.2349,1.01717 l -5.0898,0.61031 0.4069,2.23973 c 4.7508,0 8.4161,0.4758 10.9952,1.42598 2.7147,0.81444 4.7514,2.64613 6.1088,5.49662 1.3574,2.85049 2.1718,7.19476 2.4432,13.03147 0.4072,5.83675 0.6104,13.70899 0.6104,23.61786 v 56.39996 c 0,13.57378 -1.1529,23.68588 -3.4605,30.33704 -2.1717,6.65116 -6.7191,9.97607 -13.6417,9.97607 -3.122,0 -5.7023,-0.54159 -7.7383,-1.62749 -2.1718,-1.08591 -4.0711,-2.17293 -5.7,-3.25883 -1.7647,-0.95014 -3.7337,-1.42405 -5.9055,-1.42405 -2.17177,0 -4.20659,0.67699 -6.1069,2.03435 -1.90037,1.49312 -2.85197,3.73294 -2.85197,6.71918 0,2.98624 1.35777,5.22606 4.07258,6.71916 2.71473,1.49312 5.90429,2.23973 9.56919,2.23973 10.1803,0 18.6637,-2.91871 25.4507,-8.75547 6.7869,-5.70097 11.8777,-13.43787 15.2711,-23.21097 3.5292,-9.63742 5.2933,-20.4284 5.2933,-32.37332 z m 69.0226,0 c -5.7009,0 -11.198,0.74661 -16.4918,2.23973 -5.1581,1.4931 -9.365,3.59754 -12.6226,6.3123 -3.2577,2.71476 -4.8863,6.03968 -4.8863,9.97608 0,4.61511 2.3075,6.9226 6.9226,6.9226 2.3076,0 4.0716,-0.67889 5.2932,-2.03629 1.3573,-1.4931 2.5121,-3.25711 3.4623,-5.29319 0.9501,-2.17181 2.0353,-4.27622 3.2569,-6.3123 1.3574,-2.03605 3.1213,-3.73236 5.2932,-5.08975 2.1717,-1.49313 5.1581,-2.23972 8.9588,-2.23972 5.5653,0 9.7742,1.29011 12.6247,3.86914 2.9862,2.57903 4.9534,6.17667 5.9035,10.79174 1.0858,4.47936 1.6294,9.63595 1.6294,15.4727 v 7.33142 c -14.3883,0 -25.9259,1.42358 -34.613,4.27407 -8.6873,2.71477 -14.9986,6.5832 -18.935,11.6055 -3.9364,4.88656 -5.9054,10.58865 -5.9054,17.10405 0,8.00855 2.5105,14.25219 7.5328,18.73153 5.0224,4.47934 11.5387,6.71918 19.5473,6.71918 6.6511,0 12.0804,-1.42552 16.2883,-4.27602 4.2078,-2.85049 7.5328,-6.44813 9.9761,-10.79175 2.579,-4.34361 4.6158,-8.75363 6.1089,-13.23297 0,5.56524 0.2031,10.8592 0.6103,15.8815 0.4072,5.0223 0.883,8.82303 1.426,11.40205 5.7009,1e-5 10.8595,-0.88391 15.4746,-2.64853 4.7508,-1.76459 8.4819,-3.46089 11.1967,-5.08975 l 4.0726,-2.64659 -1.0172,-2.03629 c -1.3573,0.67867 -2.7829,1.3576 -4.2761,2.03629 -1.4931,0.54295 -3.1217,0.81374 -4.8862,0.81374 -2.4433,0 -4.277,-1.01739 -5.4986,-3.05347 -1.2216,-2.17178 -2.036,-5.90482 -2.4432,-11.19862 -0.2715,-5.29379 -0.4069,-12.75986 -0.4069,-22.39724 V 275.1567 c 0,-11.26625 -3.1895,-19.477 -9.5691,-24.63504 -6.3798,-5.29378 -14.3893,-7.94172 -24.0268,-7.94172 z m -535.48582,2.0363 0.40686,2.44316 c 2.85047,0 5.56613,0.54351 8.14516,1.62942 2.57903,0.95016 5.22504,3.32537 7.93979,7.12603 2.71474,3.80067 5.70115,9.84122 8.9589,18.12123 l 26.46981,67.59666 h 12.01236 L 667.26532,285.745 c 2.98625,-9.09442 5.42918,-16.22006 7.32948,-21.37812 1.90031,-5.29376 3.5966,-9.16219 5.08975,-11.6055 1.49309,-2.44326 3.12367,-4.00419 4.88826,-4.68288 1.76459,-0.6787 4.07209,-1.0191 6.92261,-1.0191 l 0.40687,-2.44316 h -38.27874 l 0.40686,2.44316 c 5.4295,0 9.16254,1.01931 11.19863,3.0554 2.03608,2.03608 3.05346,4.68208 3.05346,7.93978 0,2.17181 -0.33846,5.02284 -1.01718,8.55203 -0.54293,3.39343 -1.76534,7.94078 -3.6657,13.64177 l -15.88151,48.86512 -15.67613,-39.49935 c -2.85047,-7.19411 -5.15801,-13.64276 -6.92261,-19.34378 -1.76459,-5.70098 -2.64853,-10.38374 -2.64853,-14.04864 0,-2.98625 0.88394,-5.22605 2.64853,-6.71918 1.7646,-1.62885 5.08952,-2.44315 9.97607,-2.44315 l 0.40688,-2.44316 z m -391.12829,2.03628 c 6.92265,0 12.69049,2.10442 17.30555,6.3123 4.61511,4.07213 8.07735,9.63686 10.38488,16.69525 2.30752,6.92262 3.46033,14.65948 3.46033,23.21098 0,8.41575 -1.08509,16.15261 -3.2569,23.21099 -2.03602,6.92262 -5.2933,12.48929 -9.77263,16.69718 -4.4794,4.07212 -10.1814,6.10693 -17.10405,6.10693 -6.78687,0 -12.48706,-2.03481 -17.10213,-6.10693 -4.61511,-4.20789 -8.07734,-9.77456 -10.38488,-16.69718 -2.30752,-7.05838 -3.46033,-14.79524 -3.46033,-23.21099 0,-8.5515 1.01744,-16.28836 3.05347,-23.21098 2.17181,-7.05839 5.49861,-12.62312 9.97801,-16.69525 4.47934,-4.20788 10.11181,-6.3123 16.89868,-6.3123 z m 567.65574,42.55476 c -0.13572,4.61511 -0.74692,9.70401 -1.83284,15.26926 -1.08589,5.42949 -2.78223,10.58806 -5.08976,15.47464 -2.17182,4.88656 -5.09051,8.89037 -8.75547,12.01235 -3.6649,3.12196 -8.14456,4.68288 -13.43834,4.68288 -5.02234,0 -8.75343,-1.764 -11.19668,-5.29318 -2.44331,-3.66493 -3.66571,-8.00917 -3.66571,-13.03147 0,-5.15804 1.42548,-9.90847 4.27601,-14.25209 2.85047,-4.34362 7.46551,-7.87355 13.84521,-10.58832 6.51544,-2.71476 15.13432,-4.13833 25.85758,-4.27407 z m 378.30227,0 c -0.1357,4.61511 -0.747,9.70401 -1.833,15.26926 -1.0859,5.42949 -2.7822,10.58806 -5.0897,15.47464 -2.1718,4.88656 -5.0905,8.89037 -8.7554,12.01235 -3.6649,3.12196 -8.1447,4.68288 -13.4384,4.68288 -5.0224,0 -8.7553,-1.764 -11.1986,-5.29318 -2.4433,-3.66493 -3.6638,-8.00917 -3.6638,-13.03147 0,-5.15804 1.4256,-9.90847 4.2761,-14.25209 2.8504,-4.34362 7.4656,-7.87355 13.8451,-10.58832 6.5155,-2.71476 15.1343,-4.13833 25.8577,-4.27407 z" /><metadata
     id="metadata1"><rdf:RDF><cc:Work
         rdf:about=""><dc:title>Holloway's Portinvartija</dc:title><dc:creator><cc:Agent><dc:title>(Holloway) Chew, Kean Ho</dc:title></cc:Agent></dc:creator><dc:rights><cc:Agent><dc:title>Apache 2.0 Licensed Rights</dc:title></cc:Agent></dc:rights><dc:publisher><cc:Agent><dc:title>(Holloway) Chew, Kean Ho</dc:title></cc:Agent></dc:publisher><dc:identifier>holloway-portinvartija</dc:identifier><dc:source>https://github.com/ChewKeanHo/Portinvartija</dc:source><dc:relation>Software</dc:relation><dc:language>English</dc:language><dc:coverage>Software</dc:coverage><dc:description>Solve the Linux OS' SecureBoot kernel signing drama once &amp; for all</dc:description><cc:license
           rdf:resource="https://github.com/ChewKeanHo/Portinvartija/blob/main/LICENSE.txt" /></cc:Work></rdf:RDF></metadata></svg>
